<?xml version="1.0" encoding="UTF-8"?>
<!DOCTYPE svg PUBLIC "-//W3C//DTD SVG 1.1//EN" "http://www.w3.org/Graphics/SVG/1.1/DTD/svg11.dtd">
<!-- Creator: CorelDRAW 2019 (64-Bit) -->
<svg xmlns="http://www.w3.org/2000/svg" xml:space="preserve" width="210mm" height="297mm" version="1.1" style="shape-rendering:geometricPrecision; text-rendering:geometricPrecision; image-rendering:optimizeQuality; fill-rule:evenodd; clip-rule:evenodd"
viewBox="0 0 21000 29700"
 xmlns:xlink="http://www.w3.org/1999/xlink"
 xmlns:xodm="http://www.corel.com/coreldraw/odm/2003">
 <defs>
  <style type="text/css">
   <![CDATA[
    .fil0 {fill:white}
   ]]>
  </style>
 </defs>
 <g id="Слой_x0020_1">
  <metadata id="CorelCorpID_0Corel-Layer"/>
  <path class="fil0" d="M10500 4350c-5770.87,0 -10500,4770.15 -10500,10541.02 0,5737.38 4686.04,10458.98 10500,10458.98 5806.76,0 10500,-4714.55 10500,-10458.98 0,-5770.87 -4729.13,-10541.02 -10500,-10541.02zm1845.7 19584.96c-590.56,123.05 -1218.13,184.57 -1845.7,184.57 -627.57,0 -1255.14,-61.52 -1845.7,-184.57l0 -2879.26c0,-689.09 184.57,-935.19 430.66,-1267.48 125.29,-143.23 200.91,-271.73 762.79,-1119.6l-947.36 -147.72c-2436.42,-356.8 -3396.13,-1624.28 -3777.6,-2608.66 -492.19,-1316.51 -233.76,-2965.46 652.24,-4011.2 135.38,-160.06 246.09,-430.82 147.72,-713.77 -184.73,-566.05 -160.06,-1464.23 -37.01,-1808.85 652.4,93.25 1323.23,560.6 1882.71,898.34 257.79,150.44 393.01,110.71 516.7,123.05 449.57,-93.57 1150.84,-319.95 2227.18,-319.95 664.42,0 1365.85,98.37 2054.95,295.28 123.21,-2.88 321.24,101.9 664.42,-98.37 584.79,-356.32 1232.87,-807.66 1882.55,-898.34 123.05,344.63 147.72,1242.81 -36.85,1808.85 -98.53,282.94 12.18,553.71 147.72,713.77 885.84,1045.9 1144.27,2694.69 652.08,4011.2 -381.48,984.38 -1341.18,2251.85 -3777.6,2608.66l-947.36 147.72c580.79,876.39 641.99,981.49 762.95,1119.6 245.93,332.29 430.5,578.38 430.5,1267.48l0.01 2879.25zm1230.47 -356.8l0 -2522.46c0,-701.43 -147.72,-1168.95 -344.63,-1513.57 1870.38,-504.36 3199.38,-1611.95 3789.94,-3199.22 627.57,-1673.31 344.63,-3666.73 -701.43,-5044.92 184.73,-824.32 184.73,-2140.98 -258.27,-2756.22 -196.91,-270.61 -467.67,-418.33 -812.14,-418.33 -12.34,0 -12.34,0 -12.34,0 -954.09,51.59 -1705.03,532.08 -2510.12,1021.22 -738.28,-196.91 -1488.9,-295.28 -2239.52,-295.28 -762.79,0 -1525.75,110.71 -2202.35,295.28 -847.55,-511.09 -1591.28,-970.92 -2571.81,-1021.22 -307.62,0 -578.38,147.72 -775.29,418.33 -442.84,615.23 -442.84,1931.9 -258.27,2756.22 -1046.06,1378.19 -1329,3383.79 -701.43,5044.92 590.56,1587.27 1919.56,2694.85 3789.94,3199.22 -152.69,267.08 -273.49,611.71 -321.08,1078.1 -377.79,130.26 -705.44,172.71 -1010.17,83.15 -321.4,-95.01 -571.82,-309.54 -789.39,-675.48 -488.66,-820.95 -1320.99,-1491.14 -2268.68,-1403.98l108.15 1225.66c438.84,-40.21 875.59,424.1 1102.46,806.85 374.27,630.29 878.47,1043.66 1498.99,1226.94 460.62,135.7 881.68,132.5 1335.09,35.73l0 1659.05c-3580.7,-1255.14 -6193.36,-4675.78 -6193.36,-8687.14 0,-5094.11 4175.42,-9310.55 9269.53,-9310.55 5094.11,0 9269.53,4216.44 9269.53,9310.55 0,4011.36 -2612.66,7432 -6193.36,8687.14l0.01 0.01zm0 0z"/>
 </g>
</svg>
