<?xml version="1.0" encoding="UTF-8"?>
<!DOCTYPE svg PUBLIC "-//W3C//DTD SVG 1.1//EN" "http://www.w3.org/Graphics/SVG/1.1/DTD/svg11.dtd">
<!-- Creator: CorelDRAW 2019 (64-Bit) -->
<svg xmlns="http://www.w3.org/2000/svg" xml:space="preserve" width="210mm" height="297mm" version="1.1" style="shape-rendering:geometricPrecision; text-rendering:geometricPrecision; image-rendering:optimizeQuality; fill-rule:evenodd; clip-rule:evenodd"
viewBox="0 0 21000 29700"
 xmlns:xlink="http://www.w3.org/1999/xlink"
 xmlns:xodm="http://www.corel.com/coreldraw/odm/2003">
 <defs>
  <style type="text/css">
   <![CDATA[
    .fil0 {fill:white}
   ]]>
  </style>
 </defs>
 <g id="Слой_x0020_1">
  <metadata id="CorelCorpID_0Corel-Layer"/>
  <g id="_1912979431344">
   <g>
    <path class="fil0" d="M-0 4350l0 21000 21000 0 0 -21000 -21000 0zm19769.53 19769.53l-18539.06 0 0 -18539.06 18539.06 0 0 18539.06z"/>
   </g>
  </g>
  <g id="_1912979429456">
   <g>
    <path class="fil0" d="M8740.51 11798.44l-2962.97 0 0 6989.06 1358.44 0 0 -2342.81 1653.75 0c1211.23,0 2175.47,-1054.63 2175.47,-2323.13 0,-1076.25 -868.55,-2323.12 -2224.69,-2323.12zm-29.53 3455.15l-1575 0 0 -2264.06 1515.94 0c576.56,0 935.16,541.41 935.16,1132.03 -0.01,687.42 -399.58,1132.03 -876.1,1132.03z"/>
   </g>
  </g>
  <g id="_1912979428944">
   <g>
    <path class="fil0" d="M13819.76 15696.56c-190.39,-45.86 -1013.91,-180.06 -1013.91,-649.69 0,-376.32 308.89,-580.78 787.5,-580.78 649.32,0 1233.71,374.06 1496.25,570.94l531.56 -797.34c-282.23,-249.33 -886.31,-708.75 -2017.97,-708.75 -1078.05,0 -2027.81,611.54 -2027.81,1702.97 0,1133.67 1506.09,1345.35 1840.78,1437.19 400.19,111.69 1132.03,255.32 1132.03,698.91 0,361.35 -346.54,570.94 -846.56,570.94 -771.46,0 -1496.25,-456.05 -1811.25,-679.22l-492.19 826.88c295.31,255.94 1142.33,797.34 2332.97,797.34 643.08,0 2086.88,-200.98 2086.88,-1634.06 0,-1212.44 -1643.9,-1463.37 -1998.28,-1555.33z"/>
   </g>
  </g>
  <g id="_1912979429392">
  </g>
  <g id="_1912979427504">
  </g>
  <g id="_1912979426896">
  </g>
  <g id="_1912979426256">
  </g>
  <g id="_1912979425840">
  </g>
  <g id="_1912979424496">
  </g>
  <g id="_1912979424336">
  </g>
  <g id="_1912979424880">
  </g>
  <g id="_1912979424624">
  </g>
  <g id="_1912979422288">
  </g>
  <g id="_1912979423440">
  </g>
  <g id="_1912979423248">
  </g>
  <g id="_1912979420016">
  </g>
  <g id="_1912979421456">
  </g>
  <g id="_1912979421520">
  </g>
 </g>
</svg>
