<?xml version="1.0" encoding="UTF-8"?>
<!DOCTYPE svg PUBLIC "-//W3C//DTD SVG 1.1//EN" "http://www.w3.org/Graphics/SVG/1.1/DTD/svg11.dtd">
<!-- Creator: CorelDRAW 2019 (64-Bit) -->
<svg xmlns="http://www.w3.org/2000/svg" xml:space="preserve" width="210mm" height="297mm" version="1.1" style="shape-rendering:geometricPrecision; text-rendering:geometricPrecision; image-rendering:optimizeQuality; fill-rule:evenodd; clip-rule:evenodd"
viewBox="0 0 21000 29700"
 xmlns:xlink="http://www.w3.org/1999/xlink"
 xmlns:xodm="http://www.corel.com/coreldraw/odm/2003">
 <defs>
  <style type="text/css">
   <![CDATA[
    .fil0 {fill:white}
   ]]>
  </style>
 </defs>
 <g id="Слой_x0020_1">
  <metadata id="CorelCorpID_0Corel-Layer"/>
  <g id="_2433350670688">
   <g>
    <path class="fil0" d="M19599.64 4699.99l-18199.28 0c-772.12,0 -1400.36,628.27 -1400.36,1400.35l0 11549.63c0,193.18 156.8,349.99 349.99,349.99l20299.98 0c193.18,0 349.99,-156.8 349.99,-349.99l0 -11549.63c0.04,-772.08 -628.2,-1400.35 -1400.32,-1400.35zm700.35 12600l-19599.98 0 0 -11199.65c0,-386.41 314.3,-700.34 700.34,-700.34l18199.29 0c386.04,0 700.34,313.93 700.34,700.34l0.01 11199.65z"/>
   </g>
  </g>
  <g id="_2433350671392">
   <g>
    <path class="fil0" d="M20650.01 17299.99l-20300.02 0c-193.18,0 -349.99,156.8 -349.99,349.99l0 1749.64c0,772.12 628.24,1400.36 1400.36,1400.36l18199.28 -0.01c772.12,0 1400.36,-628.24 1400.36,-1400.36l0 -1749.64c0,-193.18 -156.8,-349.98 -349.99,-349.98zm-350.02 2099.67c0,386.41 -314.3,700.34 -700.34,700.34l-18199.29 0c-386.04,0 -700.34,-313.93 -700.34,-700.34l-0.01 -1399.66 19600.02 0 0 1399.66 -0.04 0z"/>
   </g>
  </g>
  <g id="_2433350304832">
   <g>
    <path class="fil0" d="M11550 18700.01l-2100 0c-193.18,0 -349.99,156.8 -349.99,349.99 0,193.19 156.8,349.99 349.99,349.99l2100 0c193.18,0 349.99,-156.8 349.99,-349.99 0,-193.19 -156.81,-349.99 -349.99,-349.99z"/>
   </g>
  </g>
  <g id="_2433350304704">
   <g>
    <path class="fil0" d="M19249.99 6100.01l-17499.98 0c-193.18,0 -349.99,156.8 -349.99,349.99l0 11200.01c0,193.18 156.8,349.99 349.99,349.99l17500.02 0c193.18,0 349.99,-156.8 349.99,-349.99l-0.01 -11200.01c0,-193.18 -156.8,-349.99 -350.02,-349.99zm-349.99 11199.98l-16800 0 0 -10500 16800 0 0 10500z"/>
   </g>
  </g>
  <g id="_2433350301504">
   <g>
    <path class="fil0" d="M15049.99 22900.01l-9099.98 0c-578.89,0 -1050,471.11 -1050,1050 0,578.89 471.11,1050 1050,1050l9100.02 0c578.89,0 1050,-471.11 1050,-1050 0,-578.89 -471.15,-1050 -1050.04,-1050zm0 1399.99l-9099.98 0c-193.18,0 -349.99,-157.13 -349.99,-349.99 0,-192.86 156.8,-349.99 349.99,-349.99l9100.02 0.01c193.18,0 349.99,157.13 349.99,349.99 0,192.86 -156.81,349.98 -350.03,349.98z"/>
   </g>
  </g>
  <g id="_2433350302848">
   <g>
    <path class="fil0" d="M14350.01 22900.01c-1161.32,0 -1750.01,-824.25 -1750.01,-2449.99 0,-193.18 -156.8,-349.99 -349.99,-349.99l-3499.98 0.01c-193.18,0 -349.99,156.8 -349.99,349.99 0,1625.74 -588.7,2449.99 -1750.01,2449.99 -193.18,0 -349.99,156.8 -349.99,349.99 0,193.18 156.8,349.99 349.99,349.99l7699.98 -0.01c193.18,0 349.99,-156.8 349.99,-349.99 0,-193.18 -156.8,-349.99 -349.99,-349.99zm-5995.17 0c430.87,-477.38 684.59,-1188.26 735.7,-2100l2819.25 0c50.74,911.74 304.5,1622.62 735.7,2100l-4290.65 0z"/>
   </g>
  </g>
  <g id="_2433350301408">
   <g>
    <path class="fil0" d="M16724.41 15012.38l-844.88 -844.88 470.04 -470.04c87.16,-87.16 122.14,-213.86 92.04,-333.21 -30.11,-119.36 -120.75,-213.86 -238.71,-249.54l-3499.99 -1050c-123.54,-37.12 -256.88,-3.16 -347.89,87.86 -91.34,91.01 -124.93,224.68 -87.86,347.89l1050 3499.99c35.36,118.29 130.18,208.93 249.54,239.04 118.99,29.41 246.05,-4.92 333.21,-92.04l494.89 -495.26 844.88 845.25c65.46,65.79 154.71,102.54 247.45,102.54 92.74,0 181.99,-36.75 247.45,-102.54l989.79 -990.16c136.87,-136.83 136.87,-358.03 0.04,-494.9zm-1237.28 742.71l-769.29 -769.66c-89.25,-89.25 -206.14,-133.71 -323.04,-133.71 -117.26,0 -234.16,44.79 -323.04,133.34l-252.7 252.7 -694.76 -2315.95 2315.95 694.76 -270.91 270.91c-74.57,74.89 -115.5,174.32 -115.5,280.01 0,106.07 41.3,206.14 116.2,280.34l811.99 811.99 -494.9 495.27z"/>
   </g>
  </g>
  <g id="_2433350299648">
   <g>
    <path class="fil0" d="M14700 7500l-9799.99 0c-193.18,0 -349.99,156.8 -349.99,349.99l0.01 1750.01c0,193.18 156.8,349.99 349.99,349.99l9799.98 0c193.18,0 349.99,-156.8 349.99,-349.99l0 -1750.01c0,-193.19 -156.81,-349.99 -349.99,-349.99zm-349.99 1750.01l-9100.01 0 0 -1050 9100.01 0 0 1050z"/>
   </g>
  </g>
  <g id="_2433350299168">
   <g>
    <path class="fil0" d="M9100.01 11350.01l-2800.01 0c-193.18,0 -349.99,156.8 -349.99,349.99l0 1399.99c0,193.18 156.8,349.99 349.99,349.99l2800.01 -0.01c193.18,0 349.99,-156.8 349.99,-349.99l0 -1399.98c0,-193.18 -156.8,-349.99 -349.99,-349.99zm-350.02 1399.99l-2100 0 0 -700.01 2100 0 0 700.01z"/>
   </g>
  </g>
  <g id="_2433350298816">
   <g>
    <path class="fil0" d="M14700 7500l-9799.99 0c-193.18,0 -349.99,156.8 -349.99,349.99l0 6649.99c0,193.18 156.8,349.99 349.99,349.99l8332.12 -0.01c110.95,0 214.88,-52.13 280.71,-141.05 66.16,-88.88 86.46,-203.68 54.59,-309.75l-443.09 -1477.34 1475.25 442.76c106.07,31.87 220.87,11.57 309.38,-54.59 88.88,-65.79 141.05,-170.09 141.05,-280.71l0.01 -5179.29c-0.04,-193.19 -156.85,-349.99 -350.03,-349.99zm-349.99 5058.91l-1647.47 -494.2c-123.54,-37.12 -256.88,-3.16 -347.89,87.86 -91.34,91.34 -124.93,224.68 -87.86,348.26l494.89 1649.2 -7511.68 0 0 -5950.02 9100.01 0 0 4358.9z"/>
   </g>
  </g>
  <g id="_2433350298144">
  </g>
  <g id="_2433350298304">
  </g>
  <g id="_2433350297984">
  </g>
  <g id="_2433351563104">
  </g>
  <g id="_2433351563872">
  </g>
  <g id="_2433351085824">
  </g>
  <g id="_2433351081440">
  </g>
  <g id="_2433350470608">
  </g>
  <g id="_2433350469904">
  </g>
  <g id="_2433350464976">
  </g>
  <g id="_2433351651344">
  </g>
  <g id="_2433351647024">
  </g>
  <g id="_2433351660656">
  </g>
  <g id="_2433351396224">
  </g>
  <g id="_2433351397024">
  </g>
 </g>
</svg>
